<svg width="17" height="20" viewBox="0 0 17 20" fill="none" xmlns="http://www.w3.org/2000/svg">
<path d="M16.9322 7.79458C16.6957 5.40707 15.5353 3.34899 13.8538 1.94976C12.1691 0.547264 9.96338 -0.196385 7.63297 0.0449747C5.29617 0.286334 3.27902 1.4703 1.91083 3.18917C0.539431 4.90805 -0.192608 7.16182 0.0439494 9.53954C0.168622 10.7822 0.542628 11.9368 1.11164 12.9577C1.45369 13.5709 1.85328 14.0797 2.26886 14.6277C2.43509 14.8495 2.58534 15.0549 2.71641 15.2539C2.72919 15.2735 2.74198 15.2963 2.75477 15.3159C2.99452 15.7236 3.15116 16.19 3.19912 16.6955C3.28543 17.6023 3.00091 18.4633 2.47345 19.1124C2.43829 19.1581 2.39994 19.2005 2.36158 19.2429C3.4101 19.8136 4.62483 20.0909 5.89073 19.9735V19.9767L5.96105 19.9669C7.69687 19.7843 9.19936 18.9036 10.2223 17.6218C10.3694 17.4392 10.5068 17.2467 10.6315 17.0478C12.4185 16.5749 13.9561 15.5311 15.0686 14.1384C16.44 12.4261 17.1688 10.1723 16.9322 7.79458ZM12.9587 12.3935C12.1787 13.3719 11.1366 14.0536 9.9474 14.3667L8.91802 14.6375L8.34264 15.5474C8.27231 15.6583 8.1956 15.766 8.11568 15.8671C7.55625 16.5683 6.78901 17.025 5.92909 17.175C5.93549 16.9793 5.92912 16.7803 5.91633 16.5814V16.5683L5.90353 16.4379C5.82042 15.5344 5.54548 14.6766 5.08835 13.8971C5.05639 13.8449 5.02444 13.7894 4.98927 13.734C4.79427 13.4339 4.58328 13.1502 4.42345 12.9349L4.27961 12.7457C3.95994 12.325 3.68182 11.9597 3.47723 11.5878C3.07764 10.8735 2.83468 10.0908 2.75157 9.25904C2.59493 7.69347 3.04566 6.16051 4.02066 4.94066C4.99246 3.72082 6.37346 2.96412 7.91109 2.8043C8.10928 2.78473 8.30747 2.77495 8.50567 2.77495C9.81953 2.77495 11.111 3.24462 12.1371 4.09916C13.3295 5.0907 14.0712 6.50298 14.2278 8.07508C14.3845 9.64065 13.9337 11.1736 12.9587 12.3935Z" fill="white"/>
<path fill-rule="evenodd" clip-rule="evenodd" d="M8.47461 5.5L9.97461 7L8.47461 8.5L6.97461 7L8.47461 5.5ZM6.72461 7.25L8.22461 8.75L6.72461 10.25L5.22461 8.75L6.72461 7.25ZM11.7246 8.75L10.2246 7.25L8.72461 8.75L10.2246 10.25L11.7246 8.75ZM8.47461 9L9.97461 10.5L8.47461 12L6.97461 10.5L8.47461 9Z" fill="white"/>
</svg>
